Coordinates
version=1
nRows=27
nColumns=12
inDegrees=yes

Units are S.I. units (second, meters, Newtons, ...)
Angles are in degrees

endheader
time	SC_y	SC_z	SC_x	AC_y	AC_z	AC_x	GH_y	GH_z	GH_yy	EL_x	PS_y
       0.0              -47.95         -0.552          71.99          42.24         -13.74         -2.266          -93.8          8.638         -148.3          106.4          82.36
   0.01241              -47.94        -0.5484           72.0          42.24         -13.74         -2.263         -93.79          8.645         -148.3          106.4          82.37
   0.02482              -47.94        -0.5447           72.0          42.24         -13.74          -2.26         -93.77          8.652         -148.3          106.4          82.37
   0.03723              -47.93        -0.5406           72.0          42.24         -13.74         -2.257         -93.75          8.659         -148.3          106.4          82.38
   0.04964              -47.93        -0.5364           72.0          42.24         -13.73         -2.253         -93.72          8.667         -148.3          106.4          82.38
   0.06205              -47.92        -0.5318          72.01          42.24         -13.73          -2.25          -93.7          8.676         -148.3          106.4          82.39
   0.07446              -47.91        -0.5269          72.01          42.24         -13.73         -2.246         -93.67          8.685         -148.3          106.4          82.39
   0.08687               -47.9        -0.5217          72.01          42.23         -13.73         -2.241         -93.65          8.694         -148.3          106.4           82.4
   0.09928               -47.9        -0.5161          72.01          42.23         -13.72         -2.237         -93.62          8.705         -148.3          106.4          82.41
    0.1117              -47.89        -0.5101          72.02          42.23         -13.72         -2.232         -93.59          8.716         -148.2          106.4          82.42
    0.1241              -47.88        -0.5037          72.02          42.23         -13.72         -2.227         -93.56          8.727         -148.2          106.4          82.43
    0.1365              -47.87        -0.4968          72.02          42.22         -13.71         -2.221         -93.52           8.74         -148.2          106.4          82.44
    0.1489              -47.86        -0.4893          72.03          42.22         -13.71         -2.215         -93.48          8.754         -148.2          106.4          82.45
    0.1613              -47.84        -0.4812          72.03          42.22          -13.7         -2.208         -93.44          8.769         -148.2          106.4          82.46
    0.1737              -47.83        -0.4725          72.04          42.21          -13.7         -2.201          -93.4          8.785         -148.2          106.4          82.47
    0.1862              -47.82        -0.4631          72.04          42.21         -13.69         -2.193         -93.35          8.802         -148.2          106.5          82.48
    0.1986               -47.8        -0.4528          72.04          42.21         -13.69         -2.185         -93.29          8.821         -148.2          106.5           82.5
     0.211              -47.79        -0.4416          72.05           42.2         -13.68         -2.176         -93.24          8.842         -148.1          106.5          82.51
    0.2234              -47.77        -0.4293          72.06           42.2         -13.68         -2.166         -93.17          8.864         -148.1          106.5          82.53
    0.2358              -47.75        -0.4159          72.06          42.19         -13.67         -2.155          -93.1          8.889         -148.1          106.5          82.55
    0.2482              -47.72        -0.4012          72.07          42.19         -13.66         -2.143         -93.03          8.916         -148.1          106.5          82.57
    0.2606               -47.7        -0.3851          72.08          42.18         -13.65         -2.129         -92.95          8.946         -148.1          106.5          82.59
     0.273              -47.67        -0.3672          72.09          42.18         -13.64         -2.115         -92.85          8.979         -148.0          106.5          82.62
    0.2854              -47.64        -0.3474           72.1          42.17         -13.63         -2.099         -92.75          9.015         -148.0          106.5          82.64
    0.2978              -47.61        -0.3254          72.11          42.16         -13.62         -2.081         -92.64          9.056         -148.0          106.5          82.67
    0.3103              -47.57        -0.3008          72.12          42.15         -13.61          -2.06         -92.51          9.101         -147.9          106.5          82.71
    0.3227              -47.53        -0.2733          72.14          42.14         -13.59         -2.038         -92.37          9.151         -147.9          106.5          82.74
